<svg fill="none" height="156" viewBox="0 0 540 156" width="540" xmlns="http://www.w3.org/2000/svg" xmlns:xlink="http://www.w3.org/1999/xlink"><linearGradient id="a" gradientUnits="userSpaceOnUse" x1="87.1988" x2="21.7684" y1="122.032" y2="54.9241"><stop offset="0" stop-color="#00a0ff"/><stop offset=".0066" stop-color="#00a1ff"/><stop offset=".2601" stop-color="#00beff"/><stop offset=".5122" stop-color="#00d2ff"/><stop offset=".7604" stop-color="#00dfff"/><stop offset="1" stop-color="#00e3ff"/></linearGradient><linearGradient id="b" gradientUnits="userSpaceOnUse" x1="135.337" x2="38.5499" y1="77.9945" y2="77.9945"><stop offset="0" stop-color="#ffe000"/><stop offset=".4087" stop-color="#ffbd00"/><stop offset=".7754" stop-color="#ffa500"/><stop offset="1" stop-color="#ff9c00"/></linearGradient><linearGradient id="c" gradientUnits="userSpaceOnUse" x1="99.308" x2="10.5791" y1="69.0452" y2="-21.9588"><stop offset="0" stop-color="#ff3a44"/><stop offset="1" stop-color="#c31162"/></linearGradient><linearGradient id="d" gradientUnits="userSpaceOnUse" x1="29.1892" x2="68.8106" y1="155.313" y2="114.676"><stop offset="0" stop-color="#32a071"/><stop offset=".0685" stop-color="#2da771"/><stop offset=".4762" stop-color="#15cf74"/><stop offset=".8009" stop-color="#06e775"/><stop offset="1" stop-color="#00f076"/></linearGradient><path d="m520 156h-500c-10.995 0-20-8.78-20-19.5v-117c0-10.72011 9.005-19.49998474 20-19.49998474h500c10.995 0 20 8.77987474 20 19.49998474v117c0 10.72-9.005 19.5-20 19.5z" fill="#000"/><path d="m520 3.12488c9.26 0 16.795 7.34662 16.795 16.37512v117c0 9.029-7.535 16.375-16.795 16.375h-500c-9.26 0-16.795-7.346-16.795-16.375v-117c0-9.0285 7.535-16.37512 16.795-16.37512zm0-3.12486474h-500c-10.995 0-20 8.77987474-20 19.49998474v117c0 10.72 9.005 19.5 20 19.5h500c10.995 0 20-8.78 20-19.5v-117c0-10.72011-9.005-19.49998474-20-19.49998474z" fill="#a6a6a6"/><path d="m41.74 29.4011c-1.175 1.1992-1.855 3.0664-1.855 5.4844v86.2485c0 2.418.68 4.285 1.855 5.484l.29.264 49.57-48.3117v-1.1407l-49.57-48.3113z" fill="url(#a)"/><path d="m108.105 94.6822-16.5051-16.1119v-1.1407l16.5251-16.1119.37.2096 19.57 10.8566c5.585 3.081 5.585 8.151 0 11.2515l-19.57 10.8372z" fill="url(#b)"/><path d="m108.495 94.4726-16.895-16.4726-49.86 48.618c1.855 1.902 4.88 2.131 8.32.229z" fill="url(#c)"/><path d="m108.495 61.5274-58.435-32.3749c-3.44-1.8817-6.465-1.6526-8.32.2486l49.86 48.5989z" fill="url(#d)"/><g fill="#fff"><path d="m189.67 39.9506c0 3.2565-1 5.8646-2.97 7.8098-2.265 2.3058-5.215 3.4661-8.83 3.4661-3.455 0-6.405-1.1798-8.825-3.5051-2.425-2.3595-3.635-5.2553-3.635-8.7214s1.21-6.3619 3.635-8.7019c2.42-2.3448 5.37-3.5246 8.825-3.5246 1.72 0 3.36.3461 4.925.9896 1.56.6484 2.83 1.5259 3.75 2.6081l-2.09 2.0573c-1.605-1.8476-3.79-2.7592-6.585-2.7592-2.52 0-4.705.8579-6.56 2.5886-1.835 1.7355-2.755 3.9828-2.755 6.7421 0 2.7592.92 5.0261 2.755 6.7616 1.855 1.7111 4.04 2.5886 6.56 2.5886 2.675 0 4.925-.8775 6.7-2.6081 1.17-1.1456 1.835-2.7251 2.01-4.7434h-8.71v-2.8177h11.62c.14.6094.18 1.1992.18 1.7696z" stroke="#fff" stroke-miterlimit="10" stroke-width=".16"/><path d="m208.105 30.1811h-10.915v7.41h9.84v2.8177h-9.84v7.41h10.915v2.8714h-14.005v-23.3805h14.005z" stroke="#fff" stroke-miterlimit="10" stroke-width=".16"/><path d="m221.115 50.6902h-3.09v-20.5091h-6.695v-2.8714h16.485v2.8714h-6.7z" stroke="#fff" stroke-miterlimit="10" stroke-width=".16"/><path d="m239.745 50.6902v-23.3805h3.085v23.3805z" stroke="#fff" stroke-miterlimit="10" stroke-width=".16"/><path d="m256.505 50.6902h-3.065v-20.5091h-6.72v-2.8714h16.505v2.8714h-6.72z" stroke="#fff" stroke-miterlimit="10" stroke-width=".16"/><path d="m294.435 47.6824c-2.365 2.3643-5.295 3.5441-8.79 3.5441-3.515 0-6.445-1.1798-8.81-3.5441-2.36-2.3595-3.535-5.2553-3.535-8.6824s1.175-6.3229 3.535-8.6824c2.365-2.3644 5.295-3.5441 8.81-3.5441 3.475 0 6.405 1.1797 8.77 3.5636 2.38 2.379 3.555 5.2553 3.555 8.6629 0 3.4271-1.175 6.3229-3.535 8.6824zm-15.315-1.9598c1.78 1.7501 3.945 2.6276 6.525 2.6276 2.56 0 4.745-.8775 6.505-2.6276 1.775-1.7501 2.675-3.9975 2.675-6.7226s-.9-4.9725-2.675-6.7226c-1.76-1.7501-3.945-2.6277-6.505-2.6277-2.58 0-4.745.8776-6.525 2.6277-1.775 1.7501-2.675 3.9975-2.675 6.7226s.9 4.9725 2.675 6.7226z" stroke="#fff" stroke-miterlimit="10" stroke-width=".16"/><path d="m302.305 50.6902v-23.3805h3.75l11.66 18.1838h.135l-.135-4.4948v-13.689h3.085v23.3805h-3.22l-12.21-19.0807h-.135l.135 4.5142v14.5665z" stroke="#fff" stroke-miterlimit="10" stroke-width=".16"/><path d="m272.54 84.8348c-9.395 0-17.07 6.9713-17.07 16.5892 0 9.541 7.675 16.585 17.07 16.585 9.415 0 17.09-7.044 17.09-16.585 0-9.6179-7.675-16.5892-17.09-16.5892zm0 26.6422c-5.155 0-9.59-4.149-9.59-10.053 0-5.9812 4.435-10.0567 9.59-10.0567s9.61 4.0755 9.61 10.0567c0 5.904-4.455 10.053-9.61 10.053zm-37.245-26.6422c-9.415 0-17.07 6.9713-17.07 16.5892 0 9.541 7.655 16.585 17.07 16.585 9.41 0 17.07-7.044 17.07-16.585 0-9.6179-7.66-16.5892-17.07-16.5892zm0 26.6422c-5.16 0-9.61-4.149-9.61-10.053 0-5.9812 4.45-10.0567 9.61-10.0567 5.155 0 9.59 4.0755 9.59 10.0567 0 5.904-4.435 10.053-9.59 10.053zm-44.32-21.5576v7.0493h17.265c-.505 3.9393-1.855 6.8343-3.925 8.8533-2.52 2.437-6.445 5.143-13.34 5.143-10.625 0-18.945-8.361-18.945-18.7202 0-10.3593 8.32-18.72 18.945-18.72 5.745 0 9.925 2.1889 13.01 5.0262l5.095-4.9677c-4.315-4.017-10.055-7.1028-18.105-7.1028-14.57 0-26.815 11.5586-26.815 25.7643 0 14.2062 12.245 25.7642 26.815 25.7642 7.875 0 13.79-2.515 18.44-7.234 4.765-4.646 6.25-11.1787 6.25-16.4534 0-1.638-.14-3.1444-.39-4.4022zm181.23 5.4649c-1.405-3.7098-5.74-10.5495-14.57-10.5495-8.75 0-16.035 6.7227-16.035 16.5892 0 9.292 7.21 16.585 16.875 16.585 7.815 0 12.325-4.646 14.18-7.351l-5.8-3.769c-1.935 2.76-4.57 4.588-8.38 4.588-3.785 0-6.5-1.692-8.24-5.026l22.755-9.1801zm-23.2 5.5237c-.195-6.3963 5.095-9.6723 8.885-9.6723 2.97 0 5.49 1.4479 6.33 3.5198zm-18.495 16.092h7.48v-48.7499h-7.48zm-12.25-28.4699h-.25c-1.68-1.9403-4.885-3.6953-8.945-3.6953-8.52 0-16.31 7.293-16.31 16.6432 0 9.297 7.79 16.531 16.31 16.531 4.06 0 7.265-1.769 8.945-3.768h.25v2.379c0 6.342-3.475 9.75-9.08 9.75-4.57 0-7.405-3.218-8.575-5.923l-6.505 2.647c1.875 4.397 6.84 9.808 15.08 9.808 8.77 0 16.17-5.031 16.17-17.272v-29.786h-7.09zm-8.555 22.9469c-5.155 0-9.47-4.207-9.47-9.999 0-5.8451 4.315-10.1107 9.47-10.1107 5.08 0 9.085 4.2656 9.085 10.1107 0 5.792-4.005 9.999-9.085 9.999zm97.52-43.2269h-17.89v48.7499h7.46v-18.4713h10.43c8.285 0 16.41-5.8451 16.41-15.1417 0-9.2918-8.145-15.1369-16.41-15.1369zm.195 23.4975h-10.625v-16.7164h10.625c5.57 0 8.75 4.5094 8.75 8.3558 0 3.7732-3.18 8.3606-8.75 8.3606zm46.115-7.0054c-5.39 0-10.995 2.3205-13.3 7.4636l6.62 2.7056c1.425-2.7056 4.045-3.5831 6.815-3.5831 3.87 0 7.795 2.2669 7.855 6.2693v.5118c-1.35-.7604-4.24-1.8866-7.795-1.8866-7.13 0-14.395 3.8272-14.395 10.9692 0 6.532 5.84 10.739 12.405 10.739 5.02 0 7.79-2.208 9.53-4.777h.255v3.768h7.205v-18.7004c0-8.6434-6.62-13.4794-15.195-13.4794zm-.9 26.7148c-2.44 0-5.84-1.18-5.84-4.129 0-3.773 4.24-5.221 7.91-5.221 3.285 0 4.825.707 6.82 1.638-.585 4.514-4.57 7.712-8.89 7.712zm42.345-25.6472-8.575 21.1332h-.255l-8.865-21.1332h-8.045l13.32 29.5332-7.6 16.433h7.795l20.525-45.9662zm-67.245 31.1902h7.48v-48.7499h-7.48z"/></g></svg>