<svg fill="none" height="156" viewBox="0 0 540 156" width="540" xmlns="http://www.w3.org/2000/svg"><path d="m537 138.009c0 8.314-6.874 15.048-15.377 15.048h-503.2257c-8.4988 0-15.3973-6.734-15.3973-15.048v-119.9985c0-8.30949 6.8985-15.0671 15.3973-15.0671h503.2217c8.507 0 15.377 6.75761 15.377 15.0671z" fill="#000"/><path d="m520 3.12488c9.26 0 16.795 7.34662 16.795 16.37512v117c0 9.029-7.535 16.375-16.795 16.375h-500c-9.26 0-16.795-7.346-16.795-16.375v-117c0-9.0285 7.535-16.37512 16.795-16.37512zm0-3.12486474h-500c-10.995 0-20 8.77987474-20 19.49998474v117c0 10.72 9.005 19.5 20 19.5h500c10.995 0 20-8.78 20-19.5v-117c0-10.72011-9.005-19.49998474-20-19.49998474z" fill="#a6a6a6"/><g fill="#fff"><path d="m120.512 77.1576c-.116-12.5697 10.556-18.6849 11.044-18.9696-6.044-8.5917-15.412-9.7656-18.704-9.8592-7.868-.8073-15.5 4.5903-19.508 4.5903-4.088 0-10.26-4.5123-16.912-4.3797-8.56.1287-16.568 4.9608-20.96 12.4644-9.064 15.2997-2.304 37.7832 6.38 50.1502 4.344 6.057 9.42 12.819 16.064 12.581 6.5-.261 8.928-4.04 16.772-4.04 7.772 0 10.052 4.04 16.828 3.888 6.976-.109 11.368-6.084 15.56-12.195 5.02-6.942 7.036-13.7788 7.116-14.1298-.164-.0546-13.548-5.0349-13.68-20.1006z"/><path d="m107.712 40.1934c3.496-4.2627 5.888-10.062 5.224-15.9471-5.06.2184-11.388 3.4125-15.032 7.5816-3.224 3.6738-6.104 9.6954-5.36 15.3582 5.684.4134 11.52-2.7963 15.168-6.9927z"/><path d="m196.2 39.0351c0 4.5903-1.412 8.0457-4.232 10.3662-2.612 2.1411-6.324 3.2136-11.132 3.2136-2.384 0-4.424-.1014-6.132-.3042v-25.0809c2.228-.351 4.628-.5304 7.22-.5304 4.58 0 8.032.9711 10.36 2.9133 2.608 2.1957 3.916 5.3352 3.916 9.4224zm-4.42.1131c0-2.9757-.808-5.2572-2.424-6.8484-1.616-1.5873-3.976-2.3829-7.084-2.3829-1.32 0-2.444.0858-3.376.2652v19.0671c.516.078 1.46.1131 2.832.1131 3.208 0 5.684-.8697 7.428-2.6091s2.624-4.2744 2.624-7.605z"/><path d="m219.636 43.0443c0 2.8275-.828 5.1441-2.484 6.9615-1.736 1.8681-4.036 2.8002-6.908 2.8002-2.768 0-4.972-.8931-6.616-2.6871-1.64-1.7901-2.46-4.0482-2.46-6.7704 0-2.847.844-5.1831 2.54-6.9966s3.976-2.7222 6.848-2.7222c2.768 0 4.992.8931 6.676 2.6832 1.6 1.7394 2.404 3.9858 2.404 6.7314zm-4.348.1326c0-1.6965-.376-3.1512-1.124-4.3641-.88-1.4664-2.132-2.1996-3.76-2.1996-1.684 0-2.964.7332-3.844 2.1996-.752 1.2129-1.124 2.691-1.124 4.4382 0 1.6965.376 3.1512 1.124 4.3641.908 1.4664 2.172 2.1996 3.804 2.1996 1.6 0 2.856-.7449 3.76-2.2386.776-1.2363 1.164-2.7027 1.164-4.3992z"/><path d="m251.06 34.0041-5.9 18.3846h-3.84l-2.444-7.9833c-.62-1.9929-1.124-3.9741-1.516-5.9397h-.076c-.364 2.0202-.868 3.9975-1.516 5.9397l-2.596 7.9833h-3.884l-5.548-18.3846h4.308l2.132 8.7399c.516 2.067.94 4.0365 1.28 5.9007h.076c.312-1.5366.828-3.4944 1.556-5.8617l2.676-8.775h3.416l2.564 8.5878c.62 2.0943 1.124 4.1106 1.512 6.0528h.116c.284-1.8915.712-3.9078 1.28-6.0528l2.288-8.5878h4.116z"/><path d="m272.792 52.3887h-4.192v-10.53c0-3.2448-1.264-4.8672-3.8-4.8672-1.244 0-2.248.4446-3.028 1.3377-.772.8931-1.164 1.9461-1.164 3.1512v10.9044h-4.192v-13.1274c0-1.6146-.052-3.3657-.152-5.2611h3.684l.196 2.8743h.116c.488-.8931 1.216-1.6302 2.172-2.2191 1.136-.6864 2.408-1.0335 3.8-1.0335 1.76 0 3.224.5538 4.388 1.6653 1.448 1.3611 2.172 3.393 2.172 6.0918z"/><path d="m284.352 52.3887h-4.188v-26.8203h4.188z"/><path d="m309.032 43.0443c0 2.8275-.828 5.1441-2.484 6.9615-1.736 1.8681-4.04 2.8002-6.908 2.8002-2.772 0-4.976-.8931-6.616-2.6871-1.64-1.7901-2.46-4.0482-2.46-6.7704 0-2.847.844-5.1831 2.54-6.9966s3.976-2.7222 6.844-2.7222c2.772 0 4.992.8931 6.68 2.6832 1.6 1.7394 2.404 3.9858 2.404 6.7314zm-4.352.1326c0-1.6965-.376-3.1512-1.124-4.3641-.876-1.4664-2.132-2.1996-3.756-2.1996-1.688 0-2.968.7332-3.844 2.1996-.752 1.2129-1.124 2.691-1.124 4.4382 0 1.6965.376 3.1512 1.124 4.3641.908 1.4664 2.172 2.1996 3.804 2.1996 1.6 0 2.852-.7449 3.756-2.2386.78-1.2363 1.164-2.7027 1.164-4.3992z"/><path d="m329.32 52.3887h-3.764l-.312-2.1177h-.116c-1.288 1.6887-3.124 2.535-5.508 2.535-1.78 0-3.22-.5577-4.304-1.6653-.984-1.0062-1.476-2.2581-1.476-3.744 0-2.2464.96-3.9585 2.892-5.1441 1.928-1.1856 4.64-1.7667 8.132-1.7394v-.3432c0-2.4219-1.304-3.6309-3.916-3.6309-1.86 0-3.5.4563-4.916 1.3611l-.852-2.6832c1.752-1.0569 3.916-1.5873 6.468-1.5873 4.928 0 7.4 2.535 7.4 7.605v6.7704c0 1.8369.092 3.2994.272 4.3836zm-4.352-6.318v-2.8353c-4.624-.078-6.936 1.1583-6.936 3.705 0 .9594.264 1.677.804 2.1567s1.228.7176 2.048.7176c.92 0 1.78-.2847 2.564-.8502.788-.5694 1.272-1.2909 1.452-2.1762.044-.1989.068-.4407.068-.7176z"/><path d="m353.14 52.3887h-3.72l-.196-2.9523h-.116c-1.188 2.2464-3.212 3.3696-6.056 3.3696-2.272 0-4.164-.8697-5.664-2.6091s-2.248-3.9975-2.248-6.7704c0-2.9757.812-5.3859 2.444-7.2267 1.58-1.716 3.516-2.574 5.82-2.574 2.532 0 4.304.8307 5.312 2.496h.08v-10.5534h4.196v21.8673c0 1.7901.048 3.4398.148 4.953zm-4.344-7.7532v-3.0654c0-.5304-.04-.9594-.116-1.287-.236-.9828-.744-1.8096-1.516-2.4765-.78-.6669-1.72-1.0023-2.804-1.0023-1.564 0-2.788.6045-3.688 1.8174-.892 1.2129-1.344 2.7612-1.344 4.6527 0 1.8174.428 3.2916 1.288 4.4265.908 1.209 2.132 1.8135 3.664 1.8135 1.376 0 2.476-.5031 3.312-1.5132.808-.9321 1.204-2.0553 1.204-3.3657z"/><path d="m388.992 43.0443c0 2.8275-.828 5.1441-2.484 6.9615-1.736 1.8681-4.032 2.8002-6.908 2.8002-2.764 0-4.968-.8931-6.616-2.6871-1.64-1.7901-2.46-4.0482-2.46-6.7704 0-2.847.844-5.1831 2.54-6.9966s3.976-2.7222 6.852-2.7222c2.764 0 4.992.8931 6.672 2.6832 1.6 1.7394 2.404 3.9858 2.404 6.7314zm-4.344.1326c0-1.6965-.376-3.1512-1.124-4.3641-.884-1.4664-2.132-2.1996-3.764-2.1996-1.68 0-2.96.7332-3.844 2.1996-.752 1.2129-1.124 2.691-1.124 4.4382 0 1.6965.376 3.1512 1.124 4.3641.908 1.4664 2.172 2.1996 3.804 2.1996 1.6 0 2.86-.7449 3.764-2.2386.772-1.2363 1.164-2.7027 1.164-4.3992z"/><path d="m411.532 52.3887h-4.188v-10.53c0-3.2448-1.264-4.8672-3.804-4.8672-1.244 0-2.248.4446-3.024 1.3377s-1.164 1.9461-1.164 3.1512v10.9044h-4.196v-13.1274c0-1.6146-.048-3.3657-.148-5.2611h3.68l.196 2.8743h.116c.492-.8931 1.22-1.6302 2.172-2.2191 1.14-.6864 2.408-1.0335 3.804-1.0335 1.756 0 3.22.5538 4.384 1.6653 1.452 1.3611 2.172 3.393 2.172 6.0918z"/><path d="m439.744 37.0656h-4.616v8.931c0 2.2698.82 3.4047 2.444 3.4047.752 0 1.376-.0624 1.868-.1911l.108 3.1005c-.828.3042-1.916.4563-3.256.4563-1.656 0-2.944-.4914-3.876-1.4742-.936-.9828-1.4-2.6364-1.4-4.9569v-9.2703h-2.756v-3.0615h2.756v-3.3696l4.108-1.209v4.5747h4.616v3.0654z"/><path d="m461.936 52.3887h-4.196v-10.452c0-3.2955-1.264-4.9452-3.796-4.9452-1.944 0-3.272.9555-4 2.8665-.124.4017-.196.8931-.196 1.4703v11.0565h-4.188v-26.8164h4.188v11.0799h.08c1.32-2.0163 3.212-3.0225 5.664-3.0225 1.736 0 3.172.5538 4.312 1.6653 1.42 1.3845 2.132 3.4437 2.132 6.1659z"/><path d="m484.828 42.3267c0 .7332-.056 1.3494-.156 1.8525h-12.572c.056 1.8174.656 3.2019 1.82 4.1613 1.064.858 2.436 1.287 4.116 1.287 1.86 0 3.556-.2886 5.084-.8697l.656 2.8392c-1.788.7566-3.892 1.1349-6.328 1.1349-2.92 0-5.22-.8385-6.884-2.5155-1.672-1.677-2.5-3.9273-2.5-6.7509 0-2.7729.772-5.0817 2.328-6.9225 1.624-1.9656 3.82-2.9484 6.592-2.9484 2.712 0 4.772.9828 6.164 2.9484 1.124 1.56 1.68 3.4905 1.68 5.7837zm-4-1.0569c.032-1.2129-.244-2.2581-.812-3.1395-.728-1.1349-1.836-1.7043-3.336-1.7043-1.368 0-2.484.5538-3.336 1.6653-.696.8853-1.108 1.9422-1.244 3.1785z"/><path d="m214.58 122.866h-9.084l-4.976-15.246h-17.296l-4.74 15.246h-8.844l17.136-51.9017h10.584zm-15.56-21.642-4.5-13.5521c-.476-1.3845-1.368-4.6449-2.684-9.7773h-.16c-.524 2.2074-1.368 5.4678-2.528 9.7773l-4.42 13.5521z"/><path d="m258.648 103.693c0 6.365-1.764 11.396-5.292 15.089-3.16 3.288-7.084 4.93-11.768 4.93-5.056 0-8.688-1.771-10.9-5.312h-.16v19.715h-8.528v-40.3537c0-4.0014-.108-8.1081-.316-12.3201h7.5l.476 5.9319h.16c2.844-4.4694 7.16-6.7002 12.952-6.7002 4.528 0 8.308 1.7433 11.332 5.2338 3.032 3.4944 4.544 8.0886 4.544 13.7863zm-8.688.304c0-3.642-.84-6.6452-2.528-9.0086-1.844-2.4648-4.32-3.6972-7.424-3.6972-2.104 0-4.016.6864-5.724 2.0397-1.712 1.365-2.832 3.1473-3.356 5.3547-.264 1.0296-.396 1.8724-.396 2.5354v6.24c0 2.722.856 5.019 2.568 6.895s3.936 2.812 6.672 2.812c3.212 0 5.712-1.209 7.5-3.619 1.792-2.415 2.688-5.597 2.688-9.552z"/><path d="m302.796 103.693c0 6.365-1.764 11.396-5.296 15.089-3.156 3.288-7.08 4.93-11.764 4.93-5.056 0-8.688-1.771-10.896-5.312h-.16v19.715h-8.528v-40.3537c0-4.0014-.108-8.1081-.316-12.3201h7.5l.476 5.9319h.16c2.84-4.4694 7.156-6.7002 12.952-6.7002 4.524 0 8.304 1.7433 11.336 5.2338 3.02 3.4944 4.536 8.0886 4.536 13.7863zm-8.688.304c0-3.642-.844-6.6452-2.532-9.0086-1.844-2.4648-4.312-3.6972-7.42-3.6972-2.108 0-4.016.6864-5.728 2.0397-1.712 1.365-2.828 3.1473-3.352 5.3547-.26 1.0296-.396 1.8724-.396 2.5354v6.24c0 2.722.856 5.019 2.56 6.895 1.712 1.872 3.936 2.812 6.68 2.812 3.212 0 5.712-1.209 7.5-3.619 1.792-2.415 2.688-5.597 2.688-9.552z"/><path d="m352.156 108.311c0 4.415-1.572 8.006-4.728 10.779-3.468 3.031-8.296 4.544-14.5 4.544-5.728 0-10.32-1.077-13.796-3.233l1.976-6.931c3.744 2.208 7.852 3.315 12.328 3.315 3.212 0 5.712-.709 7.508-2.121 1.788-1.412 2.68-3.307 2.68-5.671 0-2.106-.736-3.88-2.212-5.319-1.468-1.439-3.92-2.777-7.344-4.0134-9.32-3.3891-13.976-8.3538-13.976-14.8824 0-4.2666 1.632-7.7649 4.9-10.4871 3.256-2.7261 7.6-4.0872 13.032-4.0872 4.844 0 8.868.8229 12.08 2.4648l-2.132 6.7782c-3-1.5912-6.392-2.3868-10.188-2.3868-3 0-5.344.7215-7.024 2.1567-1.42 1.2831-2.132 2.847-2.132 4.6995 0 2.0514.812 3.7479 2.444 5.0817 1.42 1.2324 4 2.5662 7.744 4.0053 4.58 1.7979 7.944 3.9 10.108 6.3102 2.156 2.4025 3.232 5.4095 3.232 8.9975z"/><path d="m380.352 91.6811h-9.4v18.1699c0 4.622 1.656 6.931 4.976 6.931 1.524 0 2.788-.129 3.788-.387l.236 6.315c-1.68.612-3.892.92-6.632.92-3.368 0-6-1.002-7.9-3.003-1.892-2.005-2.844-5.366-2.844-10.089v-18.8647h-5.6v-6.24h5.6v-6.8523l8.376-2.4648v9.3171h9.4z"/><path d="m422.764 103.845c0 5.753-1.688 10.476-5.056 14.169-3.532 3.802-8.22 5.698-14.064 5.698-5.632 0-10.116-1.821-13.46-5.464s-5.016-8.241-5.016-13.783c0-5.7989 1.72-10.5491 5.172-14.2424 3.444-3.6972 8.092-5.5458 13.936-5.5458 5.632 0 10.164 1.8213 13.584 5.4678 3.272 3.5373 4.904 8.1042 4.904 13.7004zm-8.848.269c0-3.451-.756-6.4112-2.288-8.8799-1.788-2.9874-4.344-4.4772-7.656-4.4772-3.428 0-6.032 1.4937-7.82 4.4772-1.532 2.4726-2.288 5.4799-2.288 9.0359 0 3.452.756 6.412 2.288 8.877 1.844 2.987 4.42 4.477 7.744 4.477 3.256 0 5.812-1.521 7.656-4.555 1.572-2.516 2.364-5.507 2.364-8.955z"/><path d="m450.484 92.7537c-.844-.1521-1.744-.2301-2.688-.2301-3 0-5.32 1.1037-6.952 3.315-1.42 1.95-2.132 4.4144-2.132 7.3904v19.637h-8.524l.08-25.639c0-4.3134-.108-8.2407-.32-11.7819h7.428l.312 7.1604h.236c.9-2.4609 2.32-4.4421 4.264-5.928 1.9-1.3377 3.952-2.0046 6.164-2.0046.788 0 1.5.0546 2.132.1521z"/><path d="m488.624 102.383c0 1.49-.1 2.745-.312 3.771h-25.584c.1 3.697 1.336 6.525 3.712 8.475 2.156 1.743 4.944 2.617 8.368 2.617 3.788 0 7.244-.589 10.352-1.771l1.336 5.772c-3.632 1.544-7.92 2.313-12.868 2.313-5.952 0-10.624-1.708-14.024-5.121-3.392-3.412-5.092-7.995-5.092-13.744 0-5.6428 1.58-10.3423 4.744-14.0902 3.312-4.0014 7.788-6.0021 13.42-6.0021 5.532 0 9.72 2.0007 12.564 6.0021 2.252 3.1785 3.384 7.1097 3.384 11.7782zm-8.132-2.157c.056-2.4647-.5-4.5941-1.656-6.392-1.476-2.3127-3.744-3.4671-6.796-3.4671-2.788 0-5.056 1.1271-6.788 3.3891-1.42 1.7979-2.264 3.9546-2.524 6.466h17.764z"/></g></svg>